<?xml version="1.0" encoding="UTF-8"?>
<svg id="Layer_1" data-name="Layer 1" xmlns="http://www.w3.org/2000/svg" viewBox="0 0 15.98 16">
  <defs>
    <style>
      .cls-1 {
        fill: #231f20;
        stroke-width: 0px;
      }
    </style>
  </defs>
  <path class="cls-1" d="M12.36.02h0s-.14,0-.14,0c-.1,0-.19-.02-.29-.01-.25,0-.51,0-.76.01H3.79C1.78-.04-.02,1.81,0,3.73c0,0,0,.02,0,.03h0v8.57h.01s0,.03,0,.04c0,.87.27,1.66.85,2.33.63.72,1.38,1.17,2.33,1.3h9.44c1.82-.06,3.09-1.53,3.35-3.11V3.31C15.78,1.25,14.1.12,12.36.02ZM14.38,11.97c0,1.46-.96,2.42-2.4,2.43-2.62.01-5.26.01-7.89,0-1.44-.01-2.4-.97-2.4-2.43-.01-2.62-.01-5.26,0-7.88,0-1.44.97-2.39,2.43-2.4,1.31-.01,2.61,0,3.91,0s2.61-.01,3.92,0c1.48.01,2.44.96,2.44,2.45.01,2.61.01,5.22,0,7.83Z"/>
  <path class="cls-1" d="M8.07,4.07c-2.23-.01-4.01,1.72-4.02,3.94-.01,2.22,1.74,3.99,3.94,4.01,2.23.01,4.01-1.72,4.02-3.94.01-2.22-1.74-3.99-3.94-4.01Z"/>
  <path class="cls-1" d="M12.04,3.28c-.45.02-.78.24-.8.74-.02.49.23.79.72.81.49.04.8-.23.83-.72.04-.49-.23-.76-.74-.84Z"/>
</svg>